<svg width="62" height="86" viewBox="0 0 62 86" fill="none" xmlns="http://www.w3.org/2000/svg">
<path d="M10.3333 8.02521C8.9125 8.02521 7.75 9.229 7.75 10.7003V74.902C7.75 76.3733 8.9125 77.5771 10.3333 77.5771H23.25V66.8768C23.25 62.4462 26.7214 58.8516 31 58.8516C35.2786 58.8516 38.75 62.4462 38.75 66.8768V77.5771H51.6667C53.0875 77.5771 54.25 76.3733 54.25 74.902V10.7003C54.25 9.229 53.0875 8.02521 51.6667 8.02521H10.3333ZM0 10.7003C0 4.79841 4.63385 0 10.3333 0H51.6667C57.3661 0 62 4.79841 62 10.7003V74.902C62 80.8039 57.3661 85.6023 51.6667 85.6023H10.3333C4.63385 85.6023 0 80.8039 0 74.902V10.7003ZM14.2083 17.388C14.2083 15.9167 15.3708 14.7129 16.7917 14.7129H24.5417C25.9625 14.7129 27.125 15.9167 27.125 17.388V25.4132C27.125 26.8845 25.9625 28.0882 24.5417 28.0882H16.7917C15.3708 28.0882 14.2083 26.8845 14.2083 25.4132V17.388ZM37.4583 14.7129H45.2083C46.6292 14.7129 47.7917 15.9167 47.7917 17.388V25.4132C47.7917 26.8845 46.6292 28.0882 45.2083 28.0882H37.4583C36.0375 28.0882 34.875 26.8845 34.875 25.4132V17.388C34.875 15.9167 36.0375 14.7129 37.4583 14.7129ZM14.2083 38.7885C14.2083 37.3172 15.3708 36.1135 16.7917 36.1135H24.5417C25.9625 36.1135 27.125 37.3172 27.125 38.7885V46.8137C27.125 48.285 25.9625 49.4888 24.5417 49.4888H16.7917C15.3708 49.4888 14.2083 48.285 14.2083 46.8137V38.7885ZM37.4583 36.1135H45.2083C46.6292 36.1135 47.7917 37.3172 47.7917 38.7885V46.8137C47.7917 48.285 46.6292 49.4888 45.2083 49.4888H37.4583C36.0375 49.4888 34.875 48.285 34.875 46.8137V38.7885C34.875 37.3172 36.0375 36.1135 37.4583 36.1135Z" fill="white"/>
</svg>
