<svg width="104" height="83" viewBox="0 0 104 83" fill="none" xmlns="http://www.w3.org/2000/svg">
<path d="M89.1 40.0745V40.621L100.644 29.077C104.271 25.4498 104.271 19.5866 100.644 15.9595L87.7088 3.0407C84.0816 -0.586484 78.2185 -0.586484 74.5913 3.0407L67.9497 9.68227C67.5025 9.63258 67.0388 9.59945 66.575 9.59945H48.025C41.8803 9.59945 36.8288 14.237 36.1663 20.1995H36.1V40.0745C36.1 43.7348 39.0647 46.6995 42.725 46.6995C46.3853 46.6995 49.35 43.7348 49.35 40.0745V28.1495V28.1329V25.4995H52H74.525C74.525 25.4995 74.525 25.4995 74.5416 25.4995H75.85C83.1706 25.4995 89.1 31.4288 89.1 38.7495V40.0745ZM54.65 30.7995V40.0745C54.65 46.6663 49.3169 51.9995 42.725 51.9995C36.1331 51.9995 30.8 46.6663 30.8 40.0745V20.4313C24.8541 21.4582 19.9019 25.781 18.2125 31.727L15.4797 41.267L3.35595 53.3907C-0.271238 57.0179 -0.271238 62.881 3.35595 66.5082L16.2913 79.4435C19.9185 83.0707 25.7816 83.0707 29.4088 79.4435L35.6528 73.1995C35.8019 73.1995 35.951 73.216 36.1 73.216H62.6C66.9891 73.216 70.55 69.6551 70.55 65.266C70.55 64.3385 70.3844 63.4441 70.1028 62.616H70.55C74.9391 62.616 78.5 59.0551 78.5 54.666C78.5 52.546 77.6719 50.6248 76.3138 49.2004C80.5703 48.3723 83.7835 44.6291 83.8 40.1241V40.0579C83.7835 34.9566 79.6428 30.816 74.525 30.816H54.65V30.7995Z" fill="white"/>
</svg>
