<svg width="60" height="86" viewBox="0 0 60 86" fill="none" xmlns="http://www.w3.org/2000/svg">
<path d="M47.5334 41.6429C49.9334 38.1963 51.3334 33.9969 51.3334 29.4462C51.3334 17.6175 41.7834 8.03077 30.0001 8.03077C18.2168 8.03077 8.66675 17.6175 8.66675 29.4462C8.66675 33.9969 10.0667 38.1963 12.4668 41.6429C13.0834 42.5296 13.8167 43.5335 14.6001 44.6042C16.7501 47.5656 19.3167 51.1125 21.2334 54.6092C22.9667 57.7881 23.8501 61.1008 24.2834 64.2294L16.1667 64.2462C15.8001 62.2385 15.1834 60.281 14.2001 58.474C12.5501 55.4625 10.5001 52.635 8.45008 49.8075C7.58342 48.6196 6.71675 47.4317 5.88342 46.2271C2.60008 41.4756 0.666748 35.6867 0.666748 29.4462C0.666748 13.1838 13.8001 0 30.0001 0C46.2001 0 59.3334 13.1838 59.3334 29.4462C59.3334 35.6867 57.4001 41.4756 54.1001 46.2271C53.2668 47.4317 52.4001 48.6196 51.5334 49.8075C49.4834 52.6183 47.4334 55.4458 45.7834 58.474C44.8001 60.281 44.1834 62.2385 43.8168 64.2462H35.7168C36.1501 61.1175 37.0334 57.7881 38.7668 54.626C40.6834 51.1292 43.2501 47.5823 45.4001 44.621C46.1834 43.5502 46.9001 42.5463 47.5168 41.6596L47.5334 41.6429ZM30.0001 21.4154C25.5834 21.4154 22.0001 25.0125 22.0001 29.4462C22.0001 30.9185 20.8001 32.1231 19.3334 32.1231C17.8667 32.1231 16.6667 30.9185 16.6667 29.4462C16.6667 22.0512 22.6334 16.0615 30.0001 16.0615C31.4668 16.0615 32.6668 17.2662 32.6668 18.7385C32.6668 20.2108 31.4668 21.4154 30.0001 21.4154ZM30.0001 85.6615C22.6334 85.6615 16.6667 79.6719 16.6667 72.2769V69.6H43.3334V72.2769C43.3334 79.6719 37.3668 85.6615 30.0001 85.6615Z" fill="white"/>
</svg>
