<svg width="126" height="80" viewBox="0 0 126 80" fill="none" xmlns="http://www.w3.org/2000/svg">
<path d="M37.3599 67.1081C37.3599 66.1323 38.151 65.3413 39.1268 65.3413H85.4581C86.4339 65.3413 87.225 66.1323 87.225 67.1081C87.225 68.0839 86.4339 68.875 85.4581 68.875H39.1268C38.151 68.875 37.3599 68.0839 37.3599 67.1081Z" fill="white"/>
<path d="M45.2782 72.8016C45.2782 71.7174 46.1572 70.8384 47.2414 70.8384H77.3437C78.4279 70.8384 79.3068 71.7174 79.3068 72.8016C79.3068 73.8859 78.4279 74.7648 77.3437 74.7648H47.2414C46.1572 74.7648 45.2782 73.8859 45.2782 72.8016Z" fill="white"/>
<path d="M54.4398 78.364C54.4398 77.4605 55.1722 76.728 56.0758 76.728H68.5093C69.4128 76.728 70.1453 77.4605 70.1453 78.364C70.1453 79.2675 69.4128 80 68.5093 80H56.0758C55.1722 80 54.4398 79.2675 54.4398 78.364Z" fill="white"/>
<path fill-rule="evenodd" clip-rule="evenodd" d="M17.6085 41.7838C17.5599 42.867 18.4434 43.7464 19.5276 43.7464L103.094 43.7464C104.178 43.7464 105.062 42.867 105.013 41.7839C104.785 36.7092 103.675 31.7077 101.727 27.0054C99.5288 21.6978 96.3065 16.8753 92.2443 12.813C88.182 8.7508 83.3595 5.52847 78.0519 3.33C72.7443 1.13154 67.0557 0 61.3109 0C55.566 0 49.8774 1.13153 44.5698 3.33C39.2623 5.52846 34.4397 8.7508 30.3775 12.813C26.3153 16.8753 23.0929 21.6978 20.8944 27.0054C18.9467 31.7077 17.8364 36.7092 17.6085 41.7838ZM59.1556 37.7859C59.1556 36.6368 59.4042 35.6148 59.9014 34.7198C60.3986 33.8138 61.0892 33.1122 61.9731 32.615C62.868 32.1068 63.879 31.8526 65.006 31.8526C66.3871 31.8526 67.5693 32.2172 68.5527 32.9465C69.536 33.6757 70.1934 34.6701 70.5249 35.9297H67.4091C67.1771 35.4435 66.8456 35.0734 66.4147 34.8193C65.9949 34.5651 65.5142 34.4381 64.9728 34.4381C64.1 34.4381 63.3928 34.7419 62.8514 35.3496C62.3101 35.9573 62.0394 36.7694 62.0394 37.7859C62.0394 38.8024 62.3101 39.6145 62.8514 40.2222C63.3928 40.8299 64.1 41.1337 64.9728 41.1337C65.5142 41.1337 65.9949 41.0066 66.4147 40.7525C66.8456 40.4984 67.1771 40.1283 67.4091 39.6421H70.5249C70.1934 40.9017 69.536 41.8961 68.5527 42.6253C67.5693 43.3435 66.3871 43.7026 65.006 43.7026C63.879 43.7026 62.868 43.454 61.9731 42.9568C61.0892 42.4485 60.3986 41.7469 59.9014 40.852C59.4042 39.957 59.1556 38.935 59.1556 37.7859ZM49.2475 34.2558V31.9852H40.2481V34.2558H43.3308V43.6197H46.1648V34.2558H49.2475ZM53.5038 36.6092V34.2558H57.7963V31.9852H50.6698V43.6197H57.7963V41.3492H53.5038V38.7969H57.2991V36.6092H53.5038ZM82.337 43.6197V31.9852H79.503V36.5429H75.0945V31.9852H72.2604V43.6197H75.0945V38.83H79.503V43.6197H82.337Z" fill="white"/>
<path d="M15.5098 45.8446V62.6094H10.253V56.074H5.25676V62.6094H0V45.8446H5.25676V51.8828H10.253V45.8446H15.5098Z" fill="white"/>
<path d="M26.0442 62.7752C24.4656 62.7752 23.0133 62.4042 21.6873 61.6622C20.377 60.9203 19.3352 59.8942 18.5616 58.584C17.7881 57.2737 17.4014 55.7977 17.4014 54.156C17.4014 52.5142 17.7881 51.0382 18.5616 49.728C19.3352 48.4177 20.377 47.3995 21.6873 46.6734C23.0133 45.9314 24.4656 45.5605 26.0442 45.5605C27.6228 45.5605 29.0673 45.9314 30.3775 46.6734C31.6877 47.3995 32.7217 48.4177 33.4795 49.728C34.253 51.0382 34.6397 52.5142 34.6397 54.156C34.6397 55.7977 34.253 57.2737 33.4795 58.584C32.7217 59.8942 31.6799 60.9203 30.3538 61.6622C29.0436 62.4042 27.607 62.7752 26.0442 62.7752ZM26.0442 57.8736C27.0861 57.8736 27.8912 57.5421 28.4595 56.8791C29.0278 56.2003 29.3119 55.2926 29.3119 54.156C29.3119 53.0036 29.0278 52.0959 28.4595 51.4329C27.8912 50.7541 27.0861 50.4147 26.0442 50.4147C24.9866 50.4147 24.1736 50.7541 23.6053 51.4329C23.037 52.0959 22.7528 53.0036 22.7528 54.156C22.7528 55.2926 23.037 56.2003 23.6053 56.8791C24.1736 57.5421 24.9866 57.8736 26.0442 57.8736Z" fill="white"/>
<path d="M44.9659 62.6094L41.8165 56.5949H41.7929V62.6094H36.5361V45.8446H44.3502C45.7078 45.8446 46.8681 46.0893 47.831 46.5787C48.794 47.0522 49.5122 47.7074 49.9858 48.544C50.4752 49.3649 50.7199 50.2963 50.7199 51.3382C50.7199 52.459 50.4042 53.4535 49.7727 54.3217C49.1571 55.1899 48.2651 55.8135 47.097 56.1924L50.7436 62.6094H44.9659ZM41.7929 53.0904H43.8766C44.3818 53.0904 44.7606 52.9799 45.0132 52.7589C45.2658 52.5221 45.3921 52.159 45.3921 51.6697C45.3921 51.2277 45.2579 50.8804 44.9895 50.6278C44.737 50.3752 44.366 50.2489 43.8766 50.2489H41.7929V53.0904Z" fill="white"/>
<path d="M57.656 45.8446V62.6094H52.3992V45.8446H57.656Z" fill="white"/>
<path d="M65.8553 58.4182H72.5801V62.6094H60.0302V58.655L66.6603 50.0121H60.0302V45.8446H72.5801V49.799L65.8553 58.4182Z" fill="white"/>
<path d="M83.1145 62.7752C81.5359 62.7752 80.0836 62.4042 78.7576 61.6622C77.4473 60.9203 76.4055 59.8942 75.632 58.584C74.8584 57.2737 74.4717 55.7977 74.4717 54.156C74.4717 52.5142 74.8584 51.0382 75.632 49.728C76.4055 48.4177 77.4473 47.3995 78.7576 46.6734C80.0836 45.9314 81.5359 45.5605 83.1145 45.5605C84.6932 45.5605 86.1376 45.9314 87.4478 46.6734C88.7581 47.3995 89.7921 48.4177 90.5498 49.728C91.3233 51.0382 91.7101 52.5142 91.7101 54.156C91.7101 55.7977 91.3233 57.2737 90.5498 58.584C89.7921 59.8942 88.7502 60.9203 87.4241 61.6622C86.1139 62.4042 84.6774 62.7752 83.1145 62.7752ZM83.1145 57.8736C84.1564 57.8736 84.9615 57.5421 85.5298 56.8791C86.0981 56.2003 86.3823 55.2926 86.3823 54.156C86.3823 53.0036 86.0981 52.0959 85.5298 51.4329C84.9615 50.7541 84.1564 50.4147 83.1145 50.4147C82.0569 50.4147 81.2439 50.7541 80.6756 51.4329C80.1073 52.0959 79.8232 53.0036 79.8232 54.156C79.8232 55.2926 80.1073 56.2003 80.6756 56.8791C81.2439 57.5421 82.0569 57.8736 83.1145 57.8736Z" fill="white"/>
<path d="M109.685 62.6094H104.428L98.8632 54.1796V62.6094H93.6064V45.8446H98.8632L104.428 54.4164V45.8446H109.685V62.6094Z" fill="white"/>
<path d="M118.619 62.7752C116.614 62.7752 114.956 62.3095 113.646 61.3781C112.352 60.4309 111.649 59.0496 111.539 57.2342H117.127C117.206 58.1972 117.632 58.6787 118.405 58.6787C118.69 58.6787 118.926 58.6155 119.116 58.4892C119.321 58.3472 119.424 58.1341 119.424 57.8499C119.424 57.4553 119.211 57.1395 118.784 56.9027C118.358 56.6502 117.695 56.366 116.795 56.0503C115.722 55.6714 114.83 55.3005 114.12 54.9374C113.425 54.5743 112.825 54.0455 112.32 53.3509C111.815 52.6563 111.57 51.7644 111.586 50.6751C111.586 49.5859 111.862 48.6624 112.415 47.9047C112.983 47.1312 113.749 46.5471 114.712 46.1524C115.69 45.7578 116.787 45.5605 118.003 45.5605C120.055 45.5605 121.681 46.034 122.881 46.9812C124.096 47.9284 124.736 49.2623 124.799 50.983H119.14C119.124 50.5094 119.005 50.17 118.784 49.9648C118.563 49.7595 118.295 49.6569 117.979 49.6569C117.758 49.6569 117.577 49.7359 117.435 49.8937C117.293 50.0358 117.222 50.241 117.222 50.5094C117.222 50.8882 117.427 51.204 117.837 51.4566C118.263 51.6933 118.934 51.9854 119.85 52.3327C120.908 52.7273 121.776 53.1062 122.455 53.4693C123.149 53.8324 123.749 54.3375 124.254 54.9847C124.759 55.632 125.012 56.4449 125.012 57.4237C125.012 58.4498 124.759 59.3733 124.254 60.1941C123.749 60.9992 123.015 61.6307 122.052 62.0885C121.089 62.5463 119.945 62.7752 118.619 62.7752Z" fill="white"/>
</svg>
