<svg width="74" height="87" viewBox="0 0 74 87" fill="none" xmlns="http://www.w3.org/2000/svg">
<path d="M37 0.166992C40.4109 0.166992 43.1667 2.92272 43.1667 6.33366V32.4456L64.6536 19.5535C67.5828 17.7998 71.3599 18.7441 73.1135 21.6732C74.8672 24.6024 73.9229 28.3795 70.9938 30.1331L48.9865 43.3337L71.013 56.5535C73.9422 58.3071 74.8865 62.0842 73.1328 65.0134C71.3792 67.9425 67.6021 68.8868 64.6729 67.1331L43.1667 54.2217V80.3337C43.1667 83.7446 40.4109 86.5003 37 86.5003C33.5891 86.5003 30.8333 83.7446 30.8333 80.3337V54.2217L9.34636 67.1139C6.41719 68.8675 2.64011 67.9232 0.886461 64.9941C-0.867185 62.0649 0.0770864 58.2878 3.00625 56.5342L25.0135 43.3337L2.98698 30.1139C0.0578156 28.3602 -0.886455 24.5831 0.86719 21.654C2.62084 18.7248 6.39792 17.7805 9.32709 19.5342L30.8333 32.4456V6.33366C30.8333 2.92272 33.5891 0.166992 37 0.166992Z" fill="white"/>
</svg>
